<svg xmlns="http://www.w3.org/2000/svg" width="1440" height="1840" viewBox="0 0 1440 1840">
  <defs>
    <filter id="shadow" x="-20%" y="-20%" width="140%" height="140%">
      <feDropShadow dx="0" dy="10" stdDeviation="18" flood-color="#152238" flood-opacity="0.08"/>
    </filter>
    <filter id="soft" x="-20%" y="-20%" width="140%" height="140%">
      <feDropShadow dx="0" dy="3" stdDeviation="7" flood-color="#152238" flood-opacity="0.06"/>
    </filter>
    <style>
      .font { font-family: 'Noto Sans Thai', 'Leelawadee UI', Tahoma, Arial, sans-serif; fill: #152238; }
      .mono { font-family: Consolas, monospace; }
      .eyebrow { font-size: 11px; font-weight: 800; letter-spacing: 1.4px; fill: #2563eb; }
      .muted { fill: #63738a; }
      .soft { fill: #30415a; }
      .small { font-size: 12px; }
      .body { font-size: 14px; }
      .label { font-size: 12px; font-weight: 700; fill: #63738a; }
      .h3 { font-size: 20px; font-weight: 800; }
      .h2 { font-size: 26px; font-weight: 850; }
      .line { stroke: #e5eaf1; stroke-width: 1; }
      .card { fill: #ffffff; stroke: #e5eaf1; stroke-width: 1; }
      .success { fill: #047857; }
      .danger { fill: #b91c1c; }
      .warning { fill: #b45309; }
      .blue { fill: #2563eb; }
    </style>
  </defs>

  <rect width="1440" height="1840" fill="#f7f9fc"/>

  <text x="72" y="62" class="font eyebrow">CHECKLIST / UX DRAFT</text>
  <text x="72" y="104" class="font h2">แยก 3.1 ซอฟต์แวร์ / 3.2 ฮาร์ดแวร์</text>
  <text x="72" y="134" class="font body muted">ลดการกรอกผลทดสอบ LPR ↔ WIM ซ้ำ โดยให้ระบบตาม Lane อยู่ 3.1 และสภาพอุปกรณ์ตาม Asset อยู่ 3.2</text>
  <rect x="1042" y="74" width="126" height="32" rx="16" fill="#eff6ff"/>
  <text x="1105" y="95" text-anchor="middle" class="font small blue" font-weight="800">ข้อมูลจำลอง</text>
  <rect x="1180" y="74" width="188" height="32" rx="16" fill="#ecfdf5"/>
  <circle cx="1201" cy="90" r="5" fill="#047857"/>
  <text x="1215" y="95" class="font small success" font-weight="800">ออกแบบเพื่อคุยกับทีม</text>

  <!-- SCREEN A -->
  <rect x="72" y="172" width="1296" height="752" rx="18" fill="#ffffff" filter="url(#shadow)"/>
  <rect x="72" y="172" width="1296" height="74" rx="18" fill="#ffffff"/>
  <rect x="72" y="228" width="1296" height="18" fill="#ffffff"/>
  <line x1="72" y1="246" x2="1368" y2="246" class="line"/>
  <text x="98" y="201" class="font eyebrow">BOQ / DEVICE GROUP</text>
  <text x="98" y="224" class="font small muted">รอบตรวจ · NKS-OUT · 05 ก.ย. 2569</text>
  <text x="1020" y="205" class="font small muted">บันทึกอัตโนมัติแล้ว</text>
  <circle cx="1004" cy="201" r="5" fill="#047857"/>
  <rect x="1184" y="184" width="158" height="40" rx="10" fill="#2563eb"/>
  <text x="1263" y="209" text-anchor="middle" class="font small" fill="#ffffff" font-weight="800">กลับสู่ภาพรวม</text>

  <!-- left navigation -->
  <rect x="72" y="246" width="330" height="678" fill="#f8fafc"/>
  <line x1="402" y1="246" x2="402" y2="924" class="line"/>
  <text x="98" y="280" class="font label">หมวดตรวจ</text>
  <text x="98" y="306" class="font h3" font-size="18">LPR / WIM</text>
  <text x="98" y="330" class="font small muted">2 หมวด · 6 งาน · 18 หลักฐาน</text>

  <rect x="90" y="350" width="294" height="42" rx="9" fill="#ffffff"/>
  <rect x="90" y="350" width="4" height="42" rx="2" fill="#2563eb"/>
  <text x="108" y="370" class="font small blue" font-weight="850">3.1  ซอฟต์แวร์ / ระบบตาม Lane</text>
  <text x="108" y="386" class="font small muted">2 รายการ · หลักฐาน 2/6</text>
  <text x="352" y="374" class="font small blue" font-weight="850">1/2</text>

  <rect x="104" y="404" width="266" height="62" rx="9" fill="#eff6ff" stroke="#bfdbfe"/>
  <rect x="104" y="404" width="4" height="62" rx="2" fill="#2563eb"/>
  <text x="122" y="429" class="font body" font-weight="800">Lane 1</text>
  <text x="122" y="450" class="font small muted">ทดสอบอ่านป้ายร่วมกับ WIM</text>
  <rect x="306" y="420" width="48" height="24" rx="12" fill="#ffffff"/>
  <text x="330" y="436" text-anchor="middle" class="font small blue" font-weight="800">2/3</text>

  <rect x="104" y="474" width="266" height="62" rx="9" fill="#ffffff"/>
  <text x="122" y="499" class="font body" font-weight="700">Lane 2</text>
  <text x="122" y="520" class="font small muted">ทดสอบอ่านป้ายร่วมกับ WIM</text>
  <rect x="306" y="490" width="48" height="24" rx="12" fill="#fef2f2"/>
  <text x="330" y="506" text-anchor="middle" class="font small danger" font-weight="800">0/3</text>

  <line x1="98" y1="560" x2="376" y2="560" class="line"/>
  <rect x="90" y="578" width="294" height="42" rx="9" fill="#ffffff"/>
  <rect x="90" y="578" width="4" height="42" rx="2" fill="#f97316"/>
  <text x="108" y="598" class="font small warning" font-weight="850">3.2  ฮาร์ดแวร์กล้องตาม Asset</text>
  <text x="108" y="614" class="font small muted">3 รายการ · หลักฐาน 8/18</text>
  <text x="352" y="602" class="font small warning" font-weight="850">1/3</text>

  <text x="122" y="660" class="font body" font-weight="700">LPR-01</text>
  <text x="122" y="679" class="font small muted">กล้องช่องจราจร 1</text>
  <rect x="306" y="650" width="48" height="24" rx="12" fill="#ecfdf5"/>
  <text x="330" y="666" text-anchor="middle" class="font small success" font-weight="800">ปกติ</text>
  <text x="122" y="722" class="font body" font-weight="700">LPR-02</text>
  <text x="122" y="741" class="font small muted">กล้องช่องจราจร 2</text>
  <rect x="294" y="712" width="60" height="24" rx="12" fill="#fffbeb"/>
  <text x="324" y="728" text-anchor="middle" class="font small warning" font-weight="800">รอตรวจ</text>
  <text x="122" y="784" class="font body" font-weight="700">LPR-03</text>
  <text x="122" y="803" class="font small muted">กล้องช่องจราจร 3</text>
  <rect x="294" y="774" width="60" height="24" rx="12" fill="#fffbeb"/>
  <text x="324" y="790" text-anchor="middle" class="font small warning" font-weight="800">รอตรวจ</text>

  <!-- main content A -->
  <rect x="402" y="246" width="966" height="678" fill="#ffffff"/>
  <text x="432" y="280" class="font eyebrow">3.1 · SOFTWARE / SYSTEM</text>
  <text x="432" y="314" class="font h3">ทดสอบการอ่านป้ายทะเบียนร่วมกับ WIM</text>
  <text x="432" y="338" class="font body muted">ตรวจ 1 ครั้งต่อ Lane · ผลระบบเก็บที่นี่ ไม่ต้องกรอกซ้ำใน 3.2</text>
  <rect x="1156" y="274" width="174" height="34" rx="17" fill="#eff6ff"/>
  <text x="1243" y="296" text-anchor="middle" class="font small blue" font-weight="800">Lane 1 · 2/3 หลักฐาน</text>
  <line x1="432" y1="360" x2="1338" y2="360" class="line"/>

  <text x="432" y="393" class="font label">ผลตรวจรายการ</text>
  <rect x="432" y="410" width="558" height="76" rx="12" class="card"/>
  <rect x="448" y="426" width="160" height="44" rx="9" fill="#ecfdf5" stroke="#86efac"/>
  <circle cx="470" cy="448" r="8" fill="#047857"/>
  <text x="488" y="454" class="font body success" font-weight="850">ผ่าน</text>
  <rect x="620" y="426" width="160" height="44" rx="9" fill="#ffffff"/>
  <text x="700" y="454" text-anchor="middle" class="font body muted" font-weight="700">ไม่ผ่าน</text>
  <rect x="792" y="426" width="180" height="44" rx="9" fill="#ffffff"/>
  <text x="882" y="454" text-anchor="middle" class="font body muted" font-weight="700">รอผล / ทดสอบซ้ำ</text>

  <text x="432" y="526" class="font label">หลักฐานของ “ระบบ” · แนบเท่าที่จำเป็น</text>
  <rect x="432" y="542" width="558" height="54" rx="10" fill="#ffffff" stroke="#e5eaf1"/>
  <rect x="448" y="558" width="24" height="22" rx="5" fill="#eff6ff"/>
  <text x="460" y="575" text-anchor="middle" class="font small blue" font-weight="900">1</text>
  <text x="488" y="568" class="font body" font-weight="700">ภาพรถ / ป้ายที่ใช้ทดสอบ</text>
  <text x="488" y="585" class="font small muted">รถทดสอบคันที่ 1 · 1 ภาพ</text>
  <rect x="870" y="554" width="104" height="30" rx="8" fill="#eff6ff"/>
  <text x="922" y="574" text-anchor="middle" class="font small blue" font-weight="800">แนบหลักฐาน</text>

  <rect x="432" y="606" width="558" height="54" rx="10" fill="#ffffff" stroke="#e5eaf1"/>
  <rect x="448" y="622" width="24" height="22" rx="5" fill="#eff6ff"/>
  <text x="460" y="639" text-anchor="middle" class="font small blue" font-weight="900">2</text>
  <text x="488" y="632" class="font body" font-weight="700">ผลอ่านจากระบบ LPR / WIM</text>
  <text x="488" y="649" class="font small muted">หน้าจอหรือผลที่ยืนยันว่าอ่านตรงกัน</text>
  <rect x="870" y="618" width="104" height="30" rx="8" fill="#ecfdf5"/>
  <text x="922" y="638" text-anchor="middle" class="font small success" font-weight="800">มีหลักฐาน</text>

  <rect x="432" y="670" width="558" height="54" rx="10" fill="#ffffff" stroke="#e5eaf1"/>
  <rect x="448" y="686" width="24" height="22" rx="5" fill="#eff6ff"/>
  <text x="460" y="703" text-anchor="middle" class="font small blue" font-weight="900">3</text>
  <text x="488" y="696" class="font body" font-weight="700">ผลค้นหาที่เชื่อมโยงกับรายการ</text>
  <text x="488" y="713" class="font small muted">ใช้ยืนยัน trace กลับไปยังข้อมูลต้นทาง</text>
  <rect x="870" y="682" width="104" height="30" rx="8" fill="#fffbeb"/>
  <text x="922" y="702" text-anchor="middle" class="font small warning" font-weight="800">รอแนบ</text>

  <text x="432" y="764" class="font label">หมายเหตุผู้ตรวจ</text>
  <rect x="432" y="778" width="558" height="62" rx="10" fill="#f8fafc" stroke="#e5eaf1"/>
  <text x="450" y="804" class="font small soft">อ่านป้ายตรงกับข้อมูล WIM ใน Lane 1; เหลือแนบภาพหน้าค้นหา</text>
  <text x="450" y="824" class="font small muted">บันทึกเวลา 14:32 น. · ผู้ตรวจสอบภาคสนาม</text>

  <!-- right reference A -->
  <rect x="1020" y="388" width="300" height="208" rx="14" fill="#f8fafc" stroke="#e5eaf1"/>
  <text x="1044" y="420" class="font label">อุปกรณ์ที่เกี่ยวข้อง</text>
  <text x="1044" y="452" class="font h3" font-size="18">LPR-01</text>
  <text x="1044" y="475" class="font small muted">กล้องช่องจราจร 1</text>
  <text x="1044" y="507" class="font small soft">Asset No. <tspan class="mono">LPR-01</tspan></text>
  <text x="1044" y="530" class="font small soft">ผูกกับ Lane 1</text>
  <rect x="1044" y="548" width="126" height="30" rx="8" fill="#ffffff" stroke="#bfdbfe"/>
  <text x="1107" y="568" text-anchor="middle" class="font small blue" font-weight="800">เปิดงาน 3.2</text>

  <rect x="1020" y="616" width="300" height="152" rx="14" fill="#fffbeb" stroke="#fed7aa"/>
  <circle cx="1047" cy="646" r="10" fill="#f97316"/>
  <text x="1047" y="650" text-anchor="middle" class="font small" fill="#ffffff" font-weight="900">!</text>
  <text x="1067" y="650" class="font body warning" font-weight="850">ไม่กรอกซ้ำ</text>
  <text x="1044" y="679" class="font small soft">ผลอ่านป้าย / ผลค้นหา = งานระบบ</text>
  <text x="1044" y="700" class="font small soft">อยู่ใน 3.1 ตาม Lane เท่านั้น</text>
  <text x="1044" y="728" class="font small muted">3.2 เก็บเฉพาะสภาพและข้อมูลตัวกล้อง</text>
  <text x="1044" y="748" class="font small blue" font-weight="800">ดูหลักการแยกหมวด →</text>

  <!-- footer A -->
  <line x1="402" y1="862" x2="1368" y2="862" class="line"/>
  <text x="432" y="893" class="font small muted">สถานะรายการ 1/2 ผ่าน · หลักฐาน 2/3 · เปลี่ยนหมวดได้จากรายการด้านซ้าย</text>
  <rect x="1174" y="874" width="156" height="38" rx="9" fill="#2563eb"/>
  <text x="1252" y="898" text-anchor="middle" class="font small" fill="#ffffff" font-weight="800">ถัดไป: 3.2 ฮาร์ดแวร์</text>

  <!-- separator / callout -->
  <rect x="72" y="960" width="1296" height="58" rx="14" fill="#152238"/>
  <text x="100" y="995" class="font body" fill="#ffffff" font-weight="800">หลักคิด: 1 งานระบบต่อ Lane + 1 งานอุปกรณ์ต่อ Asset</text>
  <text x="720" y="995" class="font small" fill="#dbeafe">ผลตรวจสภาพ ≠ สถานะรายการ ≠ หลักฐาน</text>

  <!-- SCREEN B -->
  <rect x="72" y="1054" width="1296" height="710" rx="18" fill="#ffffff" filter="url(#shadow)"/>
  <rect x="72" y="1054" width="1296" height="74" rx="18" fill="#ffffff"/>
  <rect x="72" y="1110" width="1296" height="18" fill="#ffffff"/>
  <line x1="72" y1="1128" x2="1368" y2="1128" class="line"/>
  <text x="98" y="1083" class="font eyebrow">3.2 · HARDWARE / ASSET</text>
  <text x="98" y="1106" class="font small muted">เลือก Asset เพื่อดูสภาพอุปกรณ์และค่าที่วัดได้</text>
  <rect x="1178" y="1066" width="164" height="40" rx="10" fill="#f97316"/>
  <text x="1260" y="1091" text-anchor="middle" class="font small" fill="#ffffff" font-weight="800">บันทึกผลอุปกรณ์</text>

  <!-- left navigation B -->
  <rect x="72" y="1128" width="330" height="636" fill="#f8fafc"/>
  <line x1="402" y1="1128" x2="402" y2="1764" class="line"/>
  <text x="98" y="1162" class="font label">ฮาร์ดแวร์กล้องตาม Asset</text>
  <rect x="90" y="1182" width="294" height="62" rx="9" fill="#fff7ed" stroke="#fed7aa"/>
  <rect x="90" y="1182" width="4" height="62" rx="2" fill="#f97316"/>
  <text x="108" y="1207" class="font body warning" font-weight="850">LPR-01</text>
  <text x="108" y="1228" class="font small muted">กล้องช่องจราจร 1 · ปกติ</text>
  <text x="350" y="1212" class="font small warning" font-weight="850">4/6</text>
  <text x="122" y="1288" class="font body" font-weight="700">LPR-02</text>
  <text x="122" y="1308" class="font small muted">กล้องช่องจราจร 2 · รอตรวจ</text>
  <text x="326" y="1296" class="font small muted" font-weight="800">2/6</text>
  <text x="122" y="1368" class="font body" font-weight="700">LPR-03</text>
  <text x="122" y="1388" class="font small muted">กล้องช่องจราจร 3 · รอตรวจ</text>
  <text x="326" y="1376" class="font small muted" font-weight="800">2/6</text>
  <line x1="98" y1="1430" x2="376" y2="1430" class="line"/>
  <text x="98" y="1462" class="font label">งานระบบที่ไม่ซ้ำในหมวดนี้</text>
  <rect x="98" y="1480" width="278" height="58" rx="10" fill="#eff6ff"/>
  <text x="116" y="1504" class="font small blue" font-weight="800">3.1 · Lane 1</text>
  <text x="116" y="1525" class="font small muted">ดูผลอ่านป้ายร่วมกับ WIM →</text>

  <!-- main content B -->
  <rect x="402" y="1128" width="966" height="636" fill="#ffffff"/>
  <text x="432" y="1162" class="font eyebrow">3.2 · HARDWARE / ASSET</text>
  <text x="432" y="1196" class="font h3">ตรวจสภาพกล้อง LPR · LPR-01</text>
  <text x="432" y="1220" class="font body muted">ข้อมูลตัวอุปกรณ์และค่าหน้างานเก็บครั้งเดียวตาม Asset</text>
  <rect x="1184" y="1154" width="146" height="34" rx="17" fill="#ecfdf5"/>
  <circle cx="1202" cy="1171" r="5" fill="#047857"/>
  <text x="1214" y="1177" class="font small success" font-weight="800">สภาพปกติ</text>
  <line x1="432" y1="1242" x2="1338" y2="1242" class="line"/>

  <text x="432" y="1275" class="font label">ข้อมูลระบุตัวอุปกรณ์</text>
  <rect x="432" y="1292" width="268" height="68" rx="10" class="card"/>
  <text x="450" y="1317" class="font small muted">Asset No.</text>
  <text x="450" y="1343" class="font body mono blue" font-weight="800">LPR-01</text>
  <rect x="716" y="1292" width="268" height="68" rx="10" class="card"/>
  <text x="734" y="1317" class="font small muted">ตำแหน่ง</text>
  <text x="734" y="1343" class="font body" font-weight="700">Lane 1 · ขาออก</text>

  <text x="432" y="1400" class="font label">ค่าที่วัดได้ / สภาพอุปกรณ์</text>
  <rect x="432" y="1417" width="268" height="76" rx="10" class="card"/>
  <text x="450" y="1443" class="font small muted">แรงดันไฟเลี้ยง</text>
  <text x="450" y="1472" class="font h3 success">12.1 V</text>
  <rect x="716" y="1417" width="268" height="76" rx="10" class="card"/>
  <text x="734" y="1443" class="font small muted">รุ่น / หมายเลขเครื่อง</text>
  <text x="734" y="1472" class="font body" font-weight="800">อ่านได้ · ภาพแนบแล้ว</text>

  <text x="432" y="1532" class="font label">หลักฐานของ “อุปกรณ์”</text>
  <rect x="432" y="1548" width="552" height="54" rx="10" fill="#ffffff" stroke="#e5eaf1"/>
  <rect x="448" y="1564" width="24" height="22" rx="5" fill="#fff7ed"/>
  <text x="460" y="1581" text-anchor="middle" class="font small warning" font-weight="900">1</text>
  <text x="488" y="1574" class="font body" font-weight="700">ภาพตำแหน่ง / ทิศทางกล้อง</text>
  <text x="488" y="1591" class="font small muted">ภาพอุปกรณ์ติดตั้งจริง · 1 ภาพ</text>
  <rect x="862" y="1560" width="104" height="30" rx="8" fill="#ecfdf5"/>
  <text x="914" y="1580" text-anchor="middle" class="font small success" font-weight="800">มีหลักฐาน</text>

  <rect x="432" y="1612" width="552" height="54" rx="10" fill="#ffffff" stroke="#e5eaf1"/>
  <rect x="448" y="1628" width="24" height="22" rx="5" fill="#fff7ed"/>
  <text x="460" y="1645" text-anchor="middle" class="font small warning" font-weight="900">2</text>
  <text x="488" y="1638" class="font body" font-weight="700">ภาพรุ่น / Serial / จุดติดตั้ง</text>
  <text x="488" y="1655" class="font small muted">หลักฐานทางกายภาพของ Asset</text>
  <rect x="862" y="1624" width="104" height="30" rx="8" fill="#ecfdf5"/>
  <text x="914" y="1644" text-anchor="middle" class="font small success" font-weight="800">มีหลักฐาน</text>

  <!-- right panel B -->
  <rect x="1020" y="1284" width="300" height="170" rx="14" fill="#eff6ff" stroke="#bfdbfe"/>
  <text x="1044" y="1316" class="font label">การเชื่อมโยงข้ามหมวด</text>
  <text x="1044" y="1348" class="font body blue" font-weight="850">ผลทดสอบระบบอยู่ใน 3.1</text>
  <text x="1044" y="1372" class="font small soft">เลือก Lane เพื่อดูผล LPR ↔ WIM</text>
  <rect x="1044" y="1392" width="126" height="30" rx="8" fill="#ffffff" stroke="#93c5fd"/>
  <text x="1107" y="1412" text-anchor="middle" class="font small blue" font-weight="800">เปิด 3.1 · Lane 1</text>

  <rect x="1020" y="1478" width="300" height="154" rx="14" fill="#f8fafc" stroke="#e5eaf1"/>
  <text x="1044" y="1510" class="font label">สิ่งที่ 3.2 รับผิดชอบ</text>
  <text x="1044" y="1540" class="font small soft">• สภาพ / ความสะอาด</text>
  <text x="1044" y="1565" class="font small soft">• รุ่น / Serial / ตำแหน่ง</text>
  <text x="1044" y="1590" class="font small soft">• ค่าแรงดัน / ค่าที่วัดได้</text>
  <text x="1044" y="1615" class="font small muted">ไม่รวมผลทดสอบการอ่านป้ายซ้ำ</text>

  <text x="72" y="1810" class="font small muted">Draft scope: desktop first · ตรวจต่อเรื่อง responsive 980px และการแสดงผลบนหน้างานหลังเลือก direction</text>
  <text x="1368" y="1810" text-anchor="end" class="font small mono muted">LPR-3.1-3.2 / v0.1</text>
</svg>
